<svg xmlns="http://www.w3.org/2000/svg" xmlns:xlink="http://www.w3.org/1999/xlink" width="500" zoomAndPan="magnify" viewBox="0 0 375 374.999991" height="500" preserveAspectRatio="xMidYMid meet" version="1.0"><defs><g/><clipPath id="bc83964823"><path d="M 123.203125 142.277344 L 337.839844 142.277344 L 337.839844 146.214844 L 123.203125 146.214844 Z M 333.820312 146.214844 L 337.839844 146.214844 L 337.839844 228.167969 L 333.820312 228.167969 Z M 123.203125 146.214844 L 127.140625 146.214844 L 127.140625 228.167969 L 123.203125 228.167969 Z M 123.203125 228.167969 L 337.839844 228.167969 L 337.839844 232.191406 L 123.203125 232.191406 Z M 123.203125 228.167969 " clip-rule="nonzero"/></clipPath><clipPath id="0f2eeea794"><path d="M 37.5 142.277344 L 127.949219 142.277344 L 127.949219 232.722656 L 37.5 232.722656 Z M 37.5 142.277344 " clip-rule="nonzero"/></clipPath><clipPath id="6c45a0c339"><path d="M 52.441406 167.289062 L 113 167.289062 L 113 207.789062 L 52.441406 207.789062 Z M 52.441406 167.289062 " clip-rule="nonzero"/></clipPath></defs><g clip-path="url(#bc83964823)"><path fill="#ffffff" d="M 123.203125 142.277344 L 337.800781 142.277344 L 337.800781 232.191406 L 123.203125 232.191406 Z M 123.203125 142.277344 " fill-opacity="1" fill-rule="nonzero"/></g><g clip-path="url(#0f2eeea794)"><path fill="#ffffff" d="M 37.5 142.277344 L 127.949219 142.277344 L 127.949219 232.722656 L 37.5 232.722656 Z M 37.5 142.277344 " fill-opacity="1" fill-rule="nonzero"/></g><g clip-path="url(#6c45a0c339)"><path fill="#100f0d" d="M 111.875 167.289062 L 99.035156 180.132812 C 99.035156 189.320312 99.035156 198.511719 99.035156 207.699219 L 112.992188 207.699219 L 112.992188 167.289062 Z M 66.988281 200.722656 C 66.988281 196.882812 63.847656 193.742188 60.007812 193.742188 C 56.171875 193.742188 53.03125 196.882812 53.03125 200.722656 L 53.03125 207.699219 L 60.097656 207.699219 C 63.894531 207.652344 66.988281 204.53125 66.988281 200.722656 Z M 89.675781 184.78125 L 72.183594 167.289062 L 52.441406 167.289062 L 89.675781 204.523438 Z M 89.675781 184.78125 " fill-opacity="1" fill-rule="evenodd"/></g><g fill="#ffffff" fill-opacity="1"><g transform="translate(149.81639, 190.094548)"><g><path d="M 19.09375 -18.90625 L 19.09375 0 L 16.875 0 L 5.53125 -14.09375 L 5.53125 0 L 2.828125 0 L 2.828125 -18.90625 L 5.046875 -18.90625 L 16.390625 -4.8125 L 16.390625 -18.90625 Z M 19.09375 -18.90625 "/></g></g></g><g fill="#ffffff" fill-opacity="1"><g transform="translate(179.020798, 190.094548)"><g><path d="M 16.546875 -2.34375 L 16.546875 0 L 2.828125 0 L 2.828125 -18.90625 L 16.171875 -18.90625 L 16.171875 -16.546875 L 5.53125 -16.546875 L 5.53125 -10.75 L 15.015625 -10.75 L 15.015625 -8.453125 L 5.53125 -8.453125 L 5.53125 -2.34375 Z M 16.546875 -2.34375 "/></g></g></g><g fill="#ffffff" fill-opacity="1"><g transform="translate(204.392877, 190.094548)"><g><path d="M 14.71875 0 L 9.046875 -7.796875 L 3.453125 0 L 0.34375 0 L 7.453125 -9.6875 L 0.78125 -18.90625 L 3.859375 -18.90625 L 9.15625 -11.640625 L 14.390625 -18.90625 L 17.328125 -18.90625 L 10.671875 -9.78125 L 17.8125 0 Z M 14.71875 0 "/></g></g></g><g fill="#ffffff" fill-opacity="1"><g transform="translate(229.845926, 190.094548)"><g><path d="M 6.59375 -16.546875 L 0.109375 -16.546875 L 0.109375 -18.90625 L 15.734375 -18.90625 L 15.734375 -16.546875 L 9.265625 -16.546875 L 9.265625 0 L 6.59375 0 Z M 6.59375 -16.546875 "/></g></g></g><g fill="#ffffff" fill-opacity="1"><g transform="translate(252.977982, 190.094548)"><g><path d="M 2.828125 -18.90625 L 5.53125 -18.90625 L 5.53125 0 L 2.828125 0 Z M 2.828125 -18.90625 "/></g></g></g><g fill="#ffffff" fill-opacity="1"><g transform="translate(268.6343, 190.094548)"><g><path d="M 5.53125 -16.546875 L 5.53125 -9.96875 L 15.015625 -9.96875 L 15.015625 -7.640625 L 5.53125 -7.640625 L 5.53125 0 L 2.828125 0 L 2.828125 -18.90625 L 16.171875 -18.90625 L 16.171875 -16.546875 Z M 5.53125 -16.546875 "/></g></g></g><g fill="#ffffff" fill-opacity="1"><g transform="translate(293.061792, 190.094548)"><g><path d="M 10.078125 -6.53125 L 10.078125 0 L 7.390625 0 L 7.390625 -6.59375 L -0.109375 -18.90625 L 2.78125 -18.90625 L 8.828125 -8.9375 L 14.90625 -18.90625 L 17.578125 -18.90625 Z M 10.078125 -6.53125 "/></g></g></g><g fill="#ffffff" fill-opacity="1"><g transform="translate(167.192107, 208.036382)"><g><path d="M 6.578125 -5.59375 L 6.578125 0 L 6.40625 0 L 6.40625 -5.25 L 3.859375 -0.796875 L 3.765625 -0.796875 L 1.21875 -5.234375 L 1.21875 0 L 1.0625 0 L 1.0625 -5.59375 L 1.203125 -5.59375 L 3.8125 -1 L 6.4375 -5.59375 Z M 6.578125 -5.59375 "/></g></g></g><g fill="#ffffff" fill-opacity="1"><g transform="translate(179.475557, 208.036382)"><g><path d="M 4.453125 -1.6875 L 1.03125 -1.6875 L 0.25 0 L 0.078125 0 L 2.671875 -5.59375 L 2.828125 -5.59375 L 5.421875 0 L 5.234375 0 Z M 4.390625 -1.84375 L 2.75 -5.375 L 1.109375 -1.84375 Z M 4.390625 -1.84375 "/></g></g></g><g fill="#ffffff" fill-opacity="1"><g transform="translate(189.619975, 208.036382)"><g><path d="M 2.609375 -2.921875 L 1.21875 -1.484375 L 1.21875 0 L 1.0625 0 L 1.0625 -5.59375 L 1.21875 -5.59375 L 1.21875 -1.703125 L 5 -5.59375 L 5.21875 -5.59375 L 2.734375 -3.03125 L 5.40625 0 L 5.1875 0 Z M 2.609375 -2.921875 "/></g></g></g><g fill="#ffffff" fill-opacity="1"><g transform="translate(199.804298, 208.036382)"><g><path d="M 4.78125 -0.15625 L 4.78125 0 L 1.0625 0 L 1.0625 -5.59375 L 4.65625 -5.59375 L 4.65625 -5.4375 L 1.21875 -5.4375 L 1.21875 -2.921875 L 4.296875 -2.921875 L 4.296875 -2.765625 L 1.21875 -2.765625 L 1.21875 -0.15625 Z M 4.78125 -0.15625 "/></g></g></g><g fill="#ffffff" fill-opacity="1"><g transform="translate(209.789085, 208.036382)"><g/></g></g><g fill="#ffffff" fill-opacity="1"><g transform="translate(216.437616, 208.036382)"><g><path d="M 1.21875 -5.4375 L 1.21875 -2.75 L 4.296875 -2.75 L 4.296875 -2.609375 L 1.21875 -2.609375 L 1.21875 0 L 1.0625 0 L 1.0625 -5.59375 L 4.65625 -5.59375 L 4.65625 -5.4375 Z M 1.21875 -5.4375 "/></g></g></g><g fill="#ffffff" fill-opacity="1"><g transform="translate(226.111126, 208.036382)"><g><path d="M 5.03125 0 L 3.609375 -1.96875 C 3.421875 -1.9375 3.203125 -1.921875 2.953125 -1.921875 L 1.21875 -1.921875 L 1.21875 0 L 1.0625 0 L 1.0625 -5.59375 L 2.953125 -5.59375 C 3.640625 -5.59375 4.175781 -5.429688 4.5625 -5.109375 C 4.957031 -4.785156 5.15625 -4.332031 5.15625 -3.75 C 5.15625 -3.300781 5.035156 -2.925781 4.796875 -2.625 C 4.554688 -2.332031 4.21875 -2.128906 3.78125 -2.015625 L 5.234375 0 Z M 2.96875 -2.0625 C 3.613281 -2.0625 4.109375 -2.207031 4.453125 -2.5 C 4.804688 -2.800781 4.984375 -3.21875 4.984375 -3.75 C 4.984375 -4.289062 4.804688 -4.707031 4.453125 -5 C 4.109375 -5.289062 3.613281 -5.4375 2.96875 -5.4375 L 1.21875 -5.4375 L 1.21875 -2.0625 Z M 2.96875 -2.0625 "/></g></g></g><g fill="#ffffff" fill-opacity="1"><g transform="translate(236.479024, 208.036382)"><g><path d="M 1.0625 -5.59375 L 1.21875 -5.59375 L 1.21875 0 L 1.0625 0 Z M 1.0625 -5.59375 "/></g></g></g><g fill="#ffffff" fill-opacity="1"><g transform="translate(243.414891, 208.036382)"><g><path d="M 4.78125 -0.15625 L 4.78125 0 L 1.0625 0 L 1.0625 -5.59375 L 4.65625 -5.59375 L 4.65625 -5.4375 L 1.21875 -5.4375 L 1.21875 -2.921875 L 4.296875 -2.921875 L 4.296875 -2.765625 L 1.21875 -2.765625 L 1.21875 -0.15625 Z M 4.78125 -0.15625 "/></g></g></g><g fill="#ffffff" fill-opacity="1"><g transform="translate(253.399673, 208.036382)"><g><path d="M 5.453125 -5.59375 L 5.453125 0 L 5.3125 0 L 1.21875 -5.296875 L 1.21875 0 L 1.0625 0 L 1.0625 -5.59375 L 1.203125 -5.59375 L 5.296875 -0.296875 L 5.296875 -5.59375 Z M 5.453125 -5.59375 "/></g></g></g><g fill="#ffffff" fill-opacity="1"><g transform="translate(264.565721, 208.036382)"><g><path d="M 1.0625 -5.59375 L 3.171875 -5.59375 C 3.753906 -5.59375 4.265625 -5.472656 4.703125 -5.234375 C 5.148438 -4.992188 5.5 -4.660156 5.75 -4.234375 C 6 -3.804688 6.125 -3.328125 6.125 -2.796875 C 6.125 -2.265625 6 -1.785156 5.75 -1.359375 C 5.5 -0.929688 5.148438 -0.597656 4.703125 -0.359375 C 4.265625 -0.117188 3.753906 0 3.171875 0 L 1.0625 0 Z M 3.15625 -0.15625 C 3.71875 -0.15625 4.207031 -0.265625 4.625 -0.484375 C 5.050781 -0.710938 5.378906 -1.023438 5.609375 -1.421875 C 5.847656 -1.828125 5.96875 -2.285156 5.96875 -2.796875 C 5.96875 -3.296875 5.847656 -3.75 5.609375 -4.15625 C 5.378906 -4.5625 5.050781 -4.875 4.625 -5.09375 C 4.207031 -5.320312 3.71875 -5.4375 3.15625 -5.4375 L 1.21875 -5.4375 L 1.21875 -0.15625 Z M 3.15625 -0.15625 "/></g></g></g><g fill="#ffffff" fill-opacity="1"><g transform="translate(275.81158, 208.036382)"><g><path d="M 2.421875 0.03125 C 2.023438 0.03125 1.644531 -0.0390625 1.28125 -0.1875 C 0.925781 -0.34375 0.65625 -0.535156 0.46875 -0.765625 L 0.578125 -0.875 C 0.753906 -0.65625 1.007812 -0.472656 1.34375 -0.328125 C 1.6875 -0.191406 2.046875 -0.125 2.421875 -0.125 C 3.003906 -0.125 3.441406 -0.238281 3.734375 -0.46875 C 4.023438 -0.707031 4.171875 -1.007812 4.171875 -1.375 C 4.171875 -1.65625 4.09375 -1.878906 3.9375 -2.046875 C 3.789062 -2.222656 3.601562 -2.351562 3.375 -2.4375 C 3.144531 -2.53125 2.835938 -2.617188 2.453125 -2.703125 C 2.046875 -2.804688 1.722656 -2.90625 1.484375 -3 C 1.242188 -3.09375 1.039062 -3.234375 0.875 -3.421875 C 0.707031 -3.617188 0.625 -3.878906 0.625 -4.203125 C 0.625 -4.460938 0.6875 -4.695312 0.8125 -4.90625 C 0.945312 -5.125 1.15625 -5.296875 1.4375 -5.421875 C 1.726562 -5.546875 2.078125 -5.609375 2.484375 -5.609375 C 2.785156 -5.609375 3.078125 -5.5625 3.359375 -5.46875 C 3.648438 -5.375 3.898438 -5.253906 4.109375 -5.109375 L 4.03125 -4.96875 C 3.8125 -5.132812 3.566406 -5.257812 3.296875 -5.34375 C 3.023438 -5.425781 2.757812 -5.46875 2.5 -5.46875 C 1.9375 -5.46875 1.507812 -5.347656 1.21875 -5.109375 C 0.925781 -4.867188 0.78125 -4.566406 0.78125 -4.203125 C 0.78125 -3.910156 0.859375 -3.675781 1.015625 -3.5 C 1.171875 -3.332031 1.363281 -3.207031 1.59375 -3.125 C 1.820312 -3.039062 2.128906 -2.945312 2.515625 -2.84375 C 2.921875 -2.75 3.242188 -2.65625 3.484375 -2.5625 C 3.722656 -2.46875 3.921875 -2.328125 4.078125 -2.140625 C 4.242188 -1.953125 4.328125 -1.695312 4.328125 -1.375 C 4.328125 -1.113281 4.257812 -0.875 4.125 -0.65625 C 3.988281 -0.445312 3.773438 -0.28125 3.484375 -0.15625 C 3.203125 -0.03125 2.847656 0.03125 2.421875 0.03125 Z M 2.421875 0.03125 "/></g></g></g><g fill="#ffffff" fill-opacity="1"><g transform="translate(285.261612, 208.036382)"><g/></g></g><g fill="#ffffff" fill-opacity="1"><g transform="translate(291.910143, 208.036382)"><g><path d="M 0.875 -5.59375 L 1.046875 -5.59375 L 1.015625 -1.5 L 0.90625 -1.5 Z M 0.96875 0.03125 C 0.914062 0.03125 0.867188 0.0078125 0.828125 -0.03125 C 0.785156 -0.0820312 0.765625 -0.132812 0.765625 -0.1875 C 0.765625 -0.238281 0.785156 -0.285156 0.828125 -0.328125 C 0.867188 -0.367188 0.914062 -0.390625 0.96875 -0.390625 C 1.019531 -0.390625 1.066406 -0.367188 1.109375 -0.328125 C 1.148438 -0.285156 1.171875 -0.238281 1.171875 -0.1875 C 1.171875 -0.132812 1.148438 -0.0820312 1.109375 -0.03125 C 1.066406 0.0078125 1.019531 0.03125 0.96875 0.03125 Z M 0.96875 0.03125 "/></g></g></g></svg>